<?xml version="1.0" standalone="no"?><!DOCTYPE svg PUBLIC "-//W3C//DTD SVG 1.1//EN" "http://www.w3.org/Graphics/SVG/1.1/DTD/svg11.dtd"><svg class="icon" width="200px" height="200.00px" viewBox="0 0 1024 1024" version="1.1" xmlns="http://www.w3.org/2000/svg"><path fill="#000000" d="M496.807996 576.816215H164.197666c-19.189038 0-31.981389-15.123442-31.981389-32.408108v-32.408107c0-17.283642 14.924921-32.408107 31.981389-32.408107h330.478783c19.189038 0 31.981389 15.124466 31.981389 32.408107v32.408107c0 17.284665-12.792351 32.408107-29.849842 32.408108z m-66.095347 198.770066H164.197666c-19.189038 0-31.981389-15.123442-31.981389-32.408108v-32.408107c0-17.284665 14.924921-32.408107 31.981389-32.408107h264.383436c19.189038 0 31.981389 15.123442 31.981389 32.408107v32.408107c0 17.284665-12.792351 32.408107-29.849842 32.408108zM132.216277 313.228911c0-17.284665 14.924921-32.408107 31.981389-32.408108h132.191718c19.189038 0 31.981389 15.123442 31.981389 32.408108v32.408107c0 17.284665-14.924921 32.408107-31.981389 32.408107H164.197666c-19.189038 0-31.981389-15.123442-31.981389-32.408107v-32.408107z m675.881465 596.312244H656.716986c-34.113959 0-61.83123-28.086685-61.831231-62.656015V730.21493c0-17.284665 4.264117-34.568307 19.189038-45.37135l202.551183-205.252711c6.395664-6.481621 10.660804-15.123442 10.660804-23.765263v-43.211151c0-17.284665-14.924921-32.408107-31.982412-32.408107h-234.531548c-55.435567 0-98.077759-45.37135-98.077759-99.385545V47.481408c0-17.283642-14.924921-32.408107-34.113959-32.408108H98.102319c-53.302997 0-98.077759 45.37135-98.07776 99.385545v795.08231c0 54.014194 44.774763 99.385545 98.07776 99.385545H724.944903c46.907333 0 89.549525-34.568307 98.07776-79.940681 2.13257-8.642844-6.395664-19.444864-14.924921-19.444864z m204.683752-404.022776l-19.189038-19.444865c-12.792351-12.963243-31.982412-12.963243-46.907333 0L692.962491 743.179197c-2.131547 2.160199 0 4.321422 0 6.481621v54.014194c0 4.321422 0 8.641821 4.264117 8.641821h55.435567c2.13257 0 4.264117-2.160199 6.396687-2.160199l253.721609-254.94446c14.925944-17.285688 14.925944-36.730553 0.001023-49.693795z m-385.913327-224.697576h174.833911c12.792351 0 23.453155-10.803044 23.453155-23.765263 0-6.481621-2.13257-10.803044-6.396687-17.284665L601.282443 21.554922c-6.395664-4.321422-10.659781-6.481621-17.056468-6.481622-12.792351 0-23.453155 10.803044-23.453155 23.766287v175.004803c0 36.728506 29.848819 66.976414 66.095347 66.976413z"  /></svg>