<?xml version="1.0" standalone="no"?><!DOCTYPE svg PUBLIC "-//W3C//DTD SVG 1.1//EN" "http://www.w3.org/Graphics/SVG/1.1/DTD/svg11.dtd"><svg class="icon" width="200px" height="200.00px" viewBox="0 0 1024 1024" version="1.1" xmlns="http://www.w3.org/2000/svg"><path d="M151.95 812.88v-640c0-17.67 14.33-32 32-32h580c17.67 0 32 14.33 32 32v262.15c0 8.84 7.16 16 16 16h32c8.84 0 16-7.16 16-16V172.88c0-53.02-42.98-96-96-96h-580c-53.02 0-96 42.98-96 96v640c0 53.02 42.98 96 96 96h239.89c8.84 0 16-7.16 16-16v-32c0-8.84-7.16-16-16-16H183.95c-17.67 0-32-14.33-32-32zM666.07 274.91c0-8.84-7.16-16-16-16h-384c-8.84 0-16 7.16-16 16v32c0 8.84 7.16 16 16 16h384c8.84 0 16-7.16 16-16v-32zM650.07 450.86h-384c-8.84 0-16 7.16-16 16v32c0 8.84 7.16 16 16 16h384c8.84 0 16-7.16 16-16v-32c0-8.84-7.17-16-16-16zM491.24 642.75h-224c-8.84 0-16 7.16-16 16v32c0 8.84 7.16 16 16 16h224c8.84 0 16-7.16 16-16v-32c0-8.84-7.17-16-16-16zM931.36 897.18l-70.25-70.25c17.57-26.35 27.54-58.19 26.74-92.35-2-85.12-71.21-154.24-156.33-156.14-91.09-2.03-165.61 72.5-163.59 163.58 1.89 84.95 70.74 154.09 155.68 156.32 34.04 0.89 65.78-8.91 92.12-26.28l70.37 70.37c6.25 6.25 16.38 6.25 22.63 0l22.63-22.63c6.25-6.24 6.25-16.37 0-22.62zM632 742.91c-2.6-56.48 43.92-103 100.4-100.4 49.25 2.26 89.13 42.14 91.39 91.39 2.6 56.48-43.92 103-100.4 100.4-49.25-2.27-89.13-42.15-91.39-91.39z" /></svg>