<?xml version="1.0" standalone="no"?><!DOCTYPE svg PUBLIC "-//W3C//DTD SVG 1.1//EN" "http://www.w3.org/Graphics/SVG/1.1/DTD/svg11.dtd"><svg class="icon" width="200px" height="200.00px" viewBox="0 0 1024 1024" version="1.1" xmlns="http://www.w3.org/2000/svg"><path fill="#000000" d="M792.546955 182.034008h-84.171311V125.895717h-75.53743c-24.384393-33.343399-69.034926-56.138291-120.802089-56.138291-51.767163 0-96.526071 22.758767-120.802088 56.138291H315.624356v56.138291h-84.171311c-61.918295 0-112.168207 50.177662-112.168208 112.168207v561.093911c0 61.918295 50.249912 112.168207 112.168208 112.168208h561.09391c61.990545 0 112.168207-50.286037 112.168208-112.168208V294.202215c0-61.990545-50.141537-112.168207-112.168208-112.168207z m-420.784308 0h62.351796c0-31.067523 34.860651-56.138291 77.921682-56.138291 42.952656 0 77.921682 25.070768 77.921682 56.138291h62.279546v112.168207H371.726522V182.034008z m476.9226 673.262118c0 30.959148-25.179143 56.138291-56.138292 56.138292H231.453045c-30.959148 0-56.029916-25.179143-56.029917-56.138292V294.202215c0-30.959148 25.070768-56.138291 56.029917-56.138291h84.171311v112.276583h392.751288V238.063924h84.171311c30.959148 0 56.138291 25.179143 56.138292 56.138291v561.093911z"  /><path fill="#000000" d="M708.375644 799.157835H315.624356c-15.497636 0-28.033021-12.535384-28.03302-28.03302 0-15.497636 12.535384-28.105271 28.03302-28.105271h392.751288c15.461511 0 28.033021 12.643759 28.03302 28.105271a28.033021 28.033021 0 0 1-28.03302 28.03302zM708.375644 658.848233H315.624356c-15.497636 0-28.033021-12.535384-28.03302-28.033021a28.033021 28.033021 0 0 1 28.03302-28.033021h392.751288a28.033021 28.033021 0 0 1 28.03302 28.033021c0 15.497636-12.535384 28.033021-28.03302 28.033021zM708.375644 518.647005H315.624356c-15.497636 0-28.033021-12.535384-28.03302-28.105271a28.033021 28.033021 0 0 1 28.03302-28.03302h392.751288a28.033021 28.033021 0 0 1 28.03302 28.03302c0 15.569886-12.535384 28.105271-28.03302 28.105271z"  /></svg>