<?xml version="1.0" standalone="no"?><!DOCTYPE svg PUBLIC "-//W3C//DTD SVG 1.1//EN" "http://www.w3.org/Graphics/SVG/1.1/DTD/svg11.dtd"><svg class="icon" width="200px" height="200.00px" viewBox="0 0 1024 1024" version="1.1" xmlns="http://www.w3.org/2000/svg"><path d="M521.486615 1024h-339.447514a124.841252 124.841252 0 0 1-124.841252-124.841252V124.841252A124.841252 124.841252 0 0 1 181.661937 0H837.549967a124.841252 124.841252 0 0 1 124.841252 124.841252v475.22652a29.418785 29.418785 0 1 1-58.837569 0V124.841252a66.003683 66.003683 0 0 0-66.003683-66.003683H181.661937a66.003683 66.003683 0 0 0-66.003683 66.003683v774.317496a66.003683 66.003683 0 0 0 66.003683 66.003683h339.447514a29.418785 29.418785 0 1 1 0 58.837569z" fill="#666666" /><path d="M727.040943 280.609945H315.932287a29.418785 29.418785 0 0 1 0-58.837569h411.108656a29.418785 29.418785 0 1 1 0 58.837569zM727.040943 513.320074H315.932287a29.418785 29.418785 0 0 1 0-58.837569h411.108656a29.418785 29.418785 0 1 1 0 58.837569zM532.424368 731.697974H315.932287a29.418785 29.418785 0 1 1 0-58.837569h216.492081a29.418785 29.418785 0 0 1 0 58.837569z" fill="#666666" /><path d="M937.498401 1001.74733a29.041621 29.041621 0 0 1-20.744014-8.297606l-274.198159-270.42652a29.418785 29.418785 0 0 1 0-41.488029 30.173112 30.173112 0 0 1 41.865194 0l274.198158 270.426519a29.418785 29.418785 0 0 1-20.744015 50.1628z" fill="#898989" /><path d="M937.498401 1001.74733a29.041621 29.041621 0 0 1-20.744014-8.297606l-274.198159-270.42652a29.418785 29.418785 0 0 1 0-41.488029 30.173112 30.173112 0 0 1 41.865194 0l274.198158 270.426519a29.418785 29.418785 0 0 1-20.744015 50.1628z" fill="#666666" /><path d="M663.300243 1001.74733a30.92744 30.92744 0 0 1-21.121179-8.67477 29.418785 29.418785 0 0 1 0-41.48803l274.198159-270.426519a29.418785 29.418785 0 0 1 41.488029 0 29.418785 29.418785 0 0 1 0 41.48803l-274.198158 270.426519a29.795948 29.795948 0 0 1-20.366851 8.67477z" fill="#666666" /></svg>