<?xml version="1.0" standalone="no"?><!DOCTYPE svg PUBLIC "-//W3C//DTD SVG 1.1//EN" "http://www.w3.org/Graphics/SVG/1.1/DTD/svg11.dtd"><svg class="icon" width="200px" height="200.00px" viewBox="0 0 1024 1024" version="1.1" xmlns="http://www.w3.org/2000/svg"><path fill="#000000" d="M375.10564373 351.79227307l102.83381334 0 0 437.04834666-102.83381334 0 0-437.04834666Z"  /><path fill="#000000" d="M786.4430816 840.2613472c0 14.20949333-11.4981408 25.70654293-25.7076352 25.70654293L297.97837333 865.96789013c-14.19857813 0-25.7087264-11.4970496-25.7087264-25.70654293L272.269648 300.37591253l-102.83163093 0 0 102.83381334 0 128.54253973 0 334.21453333c0 56.786672 46.04495893 102.8359968 102.83163093 102.8359968l514.17343467 0c56.78994667 0 102.8349056-46.0493248 102.8349056-102.8359968L889.2779872 531.7511744 889.2779872 403.20863467l0-102.83381334-102.8349056 0L786.4430816 840.2613472z"  /><path fill="#000000" d="M580.77436267 351.79227307l102.8359968 0 0 437.04834666-102.8359968 0 0-437.04834666Z"  /><path fill="#000000" d="M927.10811627 120.68770987L668.8147168 120.68770987 668.8147168 68.997376c0-28.39606507-23.0235712-51.4174528-51.4174528-51.4174528L441.31328213 17.5799232c-28.39824747 0-51.41636053 23.02138773-51.41636053 51.4174528l0 51.69033387L131.60242987 120.68770987c-18.0844128 0-32.7457984 14.6613856-32.7457984 32.7457984l0 36.02037866c0 18.0844128 14.6613856 32.7457984 32.7457984 32.7457984l795.5056864 0c18.0844128 0 32.7457984-14.6613856 32.7457984-32.7457984l0-36.02037866C959.85391467 135.34909547 945.19362027 120.68770987 927.10811627 120.68770987z"  /></svg>