<?xml version="1.0" standalone="no"?><!DOCTYPE svg PUBLIC "-//W3C//DTD SVG 1.1//EN" "http://www.w3.org/Graphics/SVG/1.1/DTD/svg11.dtd"><svg class="icon" width="200px" height="200.00px" viewBox="0 0 1024 1024" version="1.1" xmlns="http://www.w3.org/2000/svg"><path fill="#000000" d="M791.24875 558.559559a46.544044 46.544044 0 0 1 46.544044 46.544044V744.735735h139.632133a46.544044 46.544044 0 1 1 0 93.088089H837.792794v139.632132a46.544044 46.544044 0 1 1-93.088088 0V837.823824h-139.632132a46.544044 46.544044 0 1 1 0-93.088089H744.704706v-139.632132a46.544044 46.544044 0 0 1 46.544044-46.544044z m-27.77128-558.52853c10.518954 0 18.772764 8.25381 18.772765 18.772765V148.661677h129.857883c10.518954 0 18.772764 8.25381 18.772764 18.772764a18.586588 18.586588 0 0 1-18.772764 18.772765h-105.623951a200.853065 200.853065 0 0 1 31.060392 117.508197 201.194388 201.194388 0 0 1-72.205327 144.348595l-297.97497 242.122118a25.723342 25.723342 0 0 0-5.554256-20.789673l-2.730584-2.854702-99.200873-93.801763c-11.511894-10.984394-29.974364-10.984394-40.958759 0a26.28187 26.28187 0 0 0-2.42029 36.428471l2.45132 2.513379 99.200872 93.801763a28.857307 28.857307 0 0 0 16.476592 8.005576l3.723524 0.217206-231.572135 188.099997A125.327596 125.327596 0 0 1 126.196418 930.911912 124.986273 124.986273 0 0 1 37.235235 893.98697a125.048332 125.048332 0 0 1-7.819399-169.513409L483.282325 166.100179a202.249386 202.249386 0 0 1 145.527711-72.732826A198.091452 198.091452 0 0 1 744.704706 124.365686V18.803794c0-10.518954 8.25381-18.772764 18.772764-18.772765z m-345.356807 260.615618a27.119663 27.119663 0 0 0-2.482349 36.05612l2.482349 2.88573 88.247508 84.461926a27.74025 27.74025 0 0 0 20.200115 8.222781c7.509106 0 14.428654-2.730584 20.789673-8.222781a27.119663 27.119663 0 0 0 2.482349-36.087149l-2.482349-2.854702-88.278537-84.461925a30.719069 30.719069 0 0 0-40.958759 0z"  /></svg>