<?xml version="1.0" standalone="no"?><!DOCTYPE svg PUBLIC "-//W3C//DTD SVG 1.1//EN" "http://www.w3.org/Graphics/SVG/1.1/DTD/svg11.dtd"><svg class="icon" width="200px" height="200.00px" viewBox="0 0 1024 1024" version="1.1" xmlns="http://www.w3.org/2000/svg"><path d="M512 924.08H232.44c-42.32 0-76.75-34.88-76.75-77.75V167.29c0-42.87 34.43-77.75 76.75-77.75h559.11c42.32 0 76.75 34.88 76.75 77.75v355.24c0 16.02-12.98 29-29 29s-29-12.98-29-29V167.29c0-10.89-8.41-19.75-18.75-19.75H232.44c-10.34 0-18.75 8.86-18.75 19.75v679.03c0 10.89 8.41 19.75 18.75 19.75H512c16.02 0 29 12.98 29 29s-12.98 29.01-29 29.01zM699.72 368.7H324.28c-16.02 0-29-12.98-29-29s12.98-29 29-29h375.44c16.02 0 29 12.98 29 29s-12.99 29-29 29zM697.31 924.08c-16.02 0-29-12.98-29-29V605.1c0-16.02 12.98-29 29-29s29 12.98 29 29v289.97c0 16.03-12.98 29.01-29 29.01zM839.3 779.09H555.32c-16.02 0-29-12.98-29-29s12.98-29 29-29H839.3c16.02 0 29 12.98 29 29s-12.98 29-29 29z" /></svg>