<?xml version="1.0" standalone="no"?><!DOCTYPE svg PUBLIC "-//W3C//DTD SVG 1.1//EN" "http://www.w3.org/Graphics/SVG/1.1/DTD/svg11.dtd"><svg class="icon" width="200px" height="200.00px" viewBox="0 0 1024 1024" version="1.1" xmlns="http://www.w3.org/2000/svg"><path fill="#000000" d="M341.333333 938.666667H128a42.666667 42.666667 0 0 1-42.666667-42.666667V405.333333a42.666667 42.666667 0 0 1 42.666667-42.666666h213.333333V128a42.666667 42.666667 0 0 1 42.666667-42.666667h256a42.666667 42.666667 0 0 1 42.666667 42.666667v405.333333h213.333333a42.666667 42.666667 0 0 1 42.56 39.466667L938.666667 576v320a42.666667 42.666667 0 0 1-39.466667 42.56L896 938.666667H341.333333z m0-512H149.333333v448h192V426.666667z m533.333334 170.666666h-192v277.333334h192V597.333333zM618.666667 149.333333H405.333333v725.333334h213.333334V149.333333z"  /></svg>