<?xml version="1.0" standalone="no"?><!DOCTYPE svg PUBLIC "-//W3C//DTD SVG 1.1//EN" "http://www.w3.org/Graphics/SVG/1.1/DTD/svg11.dtd"><svg class="icon" width="200px" height="177.32px" viewBox="0 0 1155 1024" version="1.1" xmlns="http://www.w3.org/2000/svg"><path d="M867.47136 449.86368c-158.29504 0-287.06304 128.77312-287.06304 287.06816 0 158.28992 128.768 287.06816 287.06304 287.06816 158.28992 0 287.09888-128.77824 287.09888-287.06816 0-158.29504-128.80384-287.06816-287.09888-287.06816z m0 525.91616c-131.73248 0-238.88896-107.15136-238.88896-238.87872s107.1616-238.88896 238.88896-238.88896 238.91968 107.15648 238.91968 238.88896c0 131.72224-107.19232 238.87872-238.91968 238.87872zM1066.24 0H88.33536C39.63904 0 0 39.6032 0 88.33536v575.03744c0 48.72704 39.63904 88.33536 88.33536 88.33536H509.0304v-48.1792H107.79648l307.30752-286.45888 162.176 151.1936 526.82752-491.06944c1.05984 3.59936 2.24768 7.1936 2.24768 11.14624v383.40096h48.1792V88.33536C1154.57024 39.6032 1114.9312 0 1066.24 0zM56.02304 685.92128c-4.56704-6.51776-7.84384-14.0032-7.84384-22.54848V88.33536c0-3.95264 1.18784-7.54688 2.24768-11.14624l329.30816 306.98496-323.712 301.7472zM90.0096 48.1792h974.56128l-487.28576 454.23104L90.0096 48.1792z m670.4384 658.70848h53.41184v93.16352a1277.37856 1277.37856 0 0 0 16.70144-16.94208l5.65248 23.5264c-13.33248 13.80352-27.0592 25.71776-41.17504 35.75808l-8.46336-20.22912c3.9168-3.60448 5.87776-7.92064 5.87776-12.93824v-80.93184h-32v-21.40672z m32.70656-67.75296c14.11584 10.82368 26.50624 22.11328 37.1712 33.87392l-15.29344 15.52896c-9.25184-11.2896-21.71904-22.90176-37.40672-34.82112l15.52896-14.58176z m95.27808 107.98592c8.78592 3.45088 17.2544 7.2192 25.41056 11.2896v-33.6384h-42.11712v23.06048c-1.2544 43.91424-10.19392 78.88896-26.81856 104.92416l-15.99488-16.70656c13.7984-21.32992 21.248-50.7392 22.3488-88.2176v-93.16864c39.99744-0.94208 75.75552-6.3488 107.27936-16.2304l11.2896 19.9936c-29.48608 8.31488-62.18752 13.17376-98.10432 14.58688v30.58688h102.10816v21.17632h-38.11328v44.6976c15.84128 8.63232 29.79328 17.17248 41.87648 25.64608l-11.99616 18.11456c-8.46848-6.272-18.43712-12.93824-29.88032-19.99872v61.16864h-21.87776v-73.64096a319.5136 319.5136 0 0 0-36.70528-16.93696l11.29472-16.70656z"  /><path d="M74.6496 47.32416h1014.10304v20.48H74.6496zM69.5296 683.52h434.3808v20.48H69.5296zM44.61568 61.82912h20.48V693.76h-20.48z" fill="#231815" /><path d="M74.64448 38.99904l14.02368-14.9248 500.8896 470.71744-14.02368 14.9248z" fill="#231815" /><path d="M1052.5184 34.2528l14.0288 14.9248-500.82304 470.784-14.0288-14.92992z" fill="#231815" /><path d="M459.8528 401.664l-14.30016-14.63296-352.57344 312.89344 14.30016 14.63808zM1093.86752 77.18912h20.48v394.5472h-20.48z" fill="#231815" /></svg>