<?xml version="1.0" standalone="no"?><!DOCTYPE svg PUBLIC "-//W3C//DTD SVG 1.1//EN" "http://www.w3.org/Graphics/SVG/1.1/DTD/svg11.dtd"><svg class="icon" width="200px" height="200.00px" viewBox="0 0 1024 1024" version="1.1" xmlns="http://www.w3.org/2000/svg"><path d="M508.672 128.64c123.904 0 224.768 100.864 224.768 224.768s-100.864 224.768-224.768 224.768-224.768-100.864-224.768-224.768c0-124.032 100.864-224.768 224.768-224.768m0-79.36c-167.936 0-304.128 136.192-304.128 304.128s136.192 304.128 304.128 304.128S812.8 521.344 812.8 353.408 676.608 49.28 508.672 49.28" fill="#040000" /><path d="M92.288 974.72c-2.304 0-4.608-0.256-6.912-0.64-21.504-3.84-35.968-24.32-32.128-45.952 40.064-227.328 264.576-350.08 455.552-350.08 21.888 0 39.68 17.792 39.68 39.68s-17.792 39.68-39.68 39.68c-126.464 0-340.864 77.184-377.344 284.544-3.584 19.2-20.224 32.768-39.168 32.768" fill="#040000" /><path d="M931.712 974.72c-18.944 0-35.584-13.568-39.04-32.768-36.608-207.232-250.88-284.544-377.344-284.544-21.888 0-39.68-17.792-39.68-39.68s17.792-39.68 39.68-39.68c190.848 0 415.36 122.752 455.552 350.08 3.84 21.632-10.624 42.112-32.128 45.952-2.432 0.384-4.736 0.64-7.04 0.64" fill="#040000" /></svg>